<!-- Generator: Adobe Illustrator 22.1.0, SVG Export Plug-In  -->
<svg version="1.1"
	 xmlns="http://www.w3.org/2000/svg" xmlns:xlink="http://www.w3.org/1999/xlink" xmlns:a="http://ns.adobe.com/AdobeSVGViewerExtensions/3.0/"
	 x="0px" y="0px" width="155px" height="176.6px" viewBox="0 0 155 176.6" style="enable-background:new 0 0 155 176.6;"
	 xml:space="preserve">
<style type="text/css">
	.st0{fill:#2a3a66;}
	.st1{clip-path:url(#SVGID_3_);}
	.st2{clip-path:url(#SVGID_4_);fill:#2a3a66;}
	.st3{clip-path:url(#SVGID_7_);}
	.st4{clip-path:url(#SVGID_8_);fill:#2a3a66;}
</style>
<defs>
</defs>
<path class="st0" d="M141.4,79.7C141.6,81.3,141.5,80.6,141.4,79.7C141.4,79.7,141.4,79.7,141.4,79.7 M141.3,79.2
	c0,0.2,0,0.3,0.1,0.5C141.4,79.5,141.4,79.3,141.3,79.2C141.3,79.2,141.3,79.2,141.3,79.2 M141.3,79.1
	C141.3,79.1,141.3,79.2,141.3,79.1c-0.1-0.7-0.2-1.4-0.2-1.4S141.2,78.1,141.3,79.1 M114,67.5c-0.6,1.7-1.2,3.5-1.9,5.1
	c-0.1,0.2-0.2,0.4-0.3,0.6c-0.1,0.2-0.2,0.4-0.3,0.6c0,0.1-0.1,0.2-0.1,0.3c0.1,0.1,0.2,0.2,0.3,0.4c0.5,0.7,1,1.5,1.4,2.3
	c0.8,1.4,1.6,2.9,2.1,4.4c0.5,1.6,0.9,3.2,1.1,4.8c0.5,5.6-1.3,11.3-5,15.6c-3.9,4.6-9.8,7.3-15.8,7.3c-3.3,0-6.5-0.8-9.5-2.3
	c-2.8-1.4-5.3-3.6-7.5-5.8c-2.1-2.1-3.9-4.3-5.6-6.8c-0.8-1.2-1.6-2.4-2.3-3.6c-0.5-0.8-1-1.6-1.4-2.4c-0.7-1.4-1.4-2.9-2-4.4
	c-0.7-1.5-1.3-3.1-1.8-4.6c-1.1-3.2-1.9-6.5-2.6-9.8c-1-5.3-1.4-10.7-1.1-16.1c-6,0-12.1,0.8-17.7,3.1c-0.8,0.3-1.6,0.7-2.3,1.1
	c-0.1,0.1-0.3,0.1-0.4,0.2c-0.2,0.1-0.3,0.2-0.5,0.3c-0.1,0.1-0.2,0.1-0.3,0.1c-0.2,0.1,0,0.2,0,0.4c0.3,1.6,0.8,3.2,1.2,4.7
	c1,3.3,2.2,6.6,3.6,9.8c2.8,6.5,6.4,12.8,10.5,18.6c3.9,5.4,8.3,10.4,13.3,14.7c2.5,2.2,5.2,4.2,8,6c2.9,1.8,6,3.4,9.2,4.6
	c6.3,2.4,12.9,4.1,19.6,3.7c6.6-0.4,13.1-2.5,18.7-6.2c5.3-3.6,9.7-8.5,12.6-14.1c3.1-6.1,4.6-13,4.1-19.8c0-0.2,0-0.4,0-0.5
	c0-0.2,0-0.4-0.1-0.6c-0.4-3.3-1.3-6.5-2.5-9.6c-1.4-3.3-3.1-6.4-5.3-9.3c-3.4-4.5-7.6-8.5-12.3-11.6c-1-0.7-2-1.3-3.1-1.9
	C117.9,53.8,116.3,60.8,114,67.5"/>
<g>
	<defs>
		<path id="SVGID_1_" d="M116.1,41.5c0,0.2,0,0.3,0,0.5c0-0.4,0-0.9,0-1.3C116.1,40.9,116.1,41.2,116.1,41.5"/>
	</defs>
	<defs>
		<path id="SVGID_2_" d="M69.8,0.7c-3.4,0.7-6.7,1.8-9.7,3.4c-0.6,0.3-1.2,0.7-1.8,1c-0.3,0.2-0.6,0.4-0.9,0.5
			c-0.2,0.1-0.6,0.3-0.8,0.5c-0.2,0.2-0.6,0.4-0.9,0.6c-0.3,0.2-0.6,0.5-1,0.7C54.2,8,53.6,8.5,53,9c-1.2,1.1-2.3,2.2-3.4,3.4
			c-2.2,2.6-4,5.5-5.6,8.5c-1.7,3.1-2.8,6.5-3.6,10c-0.8,3.5-1.3,7.1-1.5,10.7c0,0.6,0,1.2,0,1.7c6.2-3.2,12.8-5.3,19.6-6.7
			c1.8-0.4,3.6-0.7,5.5-0.9c0.5-0.1,0.9-0.1,1.3-0.2c0.2,0,0.4,0,0.7-0.1c0.1-0.2,0.2-0.5,0.3-0.7c0.4-0.8,0.8-1.5,1.2-2.3
			c1.6-2.7,3.6-5.2,6.1-7c4.9-3.7,11.5-4.9,17.4-3.4c6.4,1.6,11.7,6.3,14.2,12.4c0.6,1.6,1.1,3.3,1.3,5c0.2,1.8,0.1,3.6-0.1,5.4
			c-0.4,3.5-1.3,6.9-2.5,10.2c-2.4,6.3-6,12-10.3,17.1c-4.3,5.1-9.3,9.5-14.9,13.2c-2,1.3-4.2,2.6-6.4,3.7c1.6,2.8,3.4,5.4,5.5,7.9
			c2.1,2.5,4.5,4.6,7,6.5c0.7,0.5,1.4,0.9,2.1,1.4c0.1,0.1,0.3,0.2,0.4,0.2c0,0,0.2-0.2,0.3-0.2c0.3-0.3,0.7-0.6,1-0.9
			c1.2-1.1,2.3-2.3,3.5-3.5c2.4-2.6,4.6-5.3,6.7-8.2c4.2-5.8,7.7-12,10.6-18.6c2.5-5.8,4.4-11.9,5.6-18.1c0.8-4.4,1.3-8.9,1.1-13.4
			v0.1c0-0.2,0-0.4,0-0.6c-0.2-3.5-0.7-6.9-1.4-10.3c-0.8-3.4-1.8-6.8-3.3-10c-2.9-6-7.4-11.2-13-14.9C92.9,2.7,86.5,0.4,80,0.1
			C79.1,0,78.3,0,77.4,0C74.9,0,72.3,0.2,69.8,0.7"/>
	</defs>
	<use xlink:href="#SVGID_1_"  style="overflow:visible;fill:#2a3a66;"/>
	<use xlink:href="#SVGID_2_"  style="overflow:visible;fill:#2a3a66;"/>
	<clipPath id="SVGID_3_">
		<use xlink:href="#SVGID_1_"  style="overflow:visible;"/>
	</clipPath>
	<clipPath id="SVGID_4_" class="st1">
		<use xlink:href="#SVGID_2_"  style="overflow:visible;"/>
	</clipPath>
	<rect x="39" class="st2" width="77.3" height="104.9"/>
</g>
<path class="st0" d="M64.2,37.8c-7,0.9-13.8,2.7-20.3,5.4c-3.1,1.3-6,2.8-8.8,4.6c-2.9,1.9-5.7,4.1-8.2,6.5
	c-2.3,2.1-4.4,4.3-6.2,6.8c-2,2.8-3.7,5.8-4.8,9c-2.4,6.6-3,13.7-1.5,20.6c1.3,6.6,4.5,12.8,9,17.8c4.5,5,10.3,8.7,16.7,10.5
	c6.1,1.7,12.6,1.8,18.8,0.7c5.8-1,11.3-3.1,16.4-6c0,0-0.1,0-0.1-0.1c0.1,0,0.1-0.1,0.2-0.1c-5.7-3.8-10.8-8.4-15.4-13.5
	c-1.2-1.3-2.3-2.7-3.4-4c-0.4-0.5-0.8-1-1.2-1.6c-0.1-0.1-0.1-0.2-0.2-0.3c-0.1,0-0.2,0-0.3,0c-0.2,0-0.4,0-0.6,0.1
	c-0.3,0-0.6,0-0.9,0c-1.7,0-3.3,0-5-0.1c-1.6-0.1-3.3-0.6-4.9-1.1c-5.5-2-9.9-6.4-12.1-11.8c-2.3-5.7-1.9-12.2,0.9-17.6
	c1.5-2.7,3.5-5.1,6-6.9c2.4-1.8,5.3-3,8.2-3.9c5.8-1.8,12-2.3,18.1-2c7,0.4,14,2,20.6,4.5c4.5,1.7,8.9,4,12.9,6.6
	c0-0.2,0.1-0.2,0.2-0.3c0.2-0.2,0.4-0.7,0.6-1c0.3-0.6,0.7-1.2,1-1.9c0.6-1.2,1.2-2.5,1.7-3.7c1.2-3,2.1-6.1,2.6-9.3
	c0.2-1.6,0.4-3.3,0.4-4.9c0,0,0,0,0,0c-6.5-2-13.3-3.2-20.1-3.7c-2.3-0.2-4.5-0.2-6.8-0.2C73.1,36.9,68.7,37.2,64.2,37.8"/>
<path class="st0" d="M155,140.4c0-5.9-3-9.2-9.1-9.2c-6.1,0-9,3.4-9,9.2v2.4c0,6.5,3,9.5,9,9.5c6.1,0,9.1-3,9.1-9.6V140.4z M0,151.8
	h6.1v-20.3H0V151.8z M49.2,131.5h-9.3c-5.3,0-7.9,2.8-7.9,6.5c0,3.4,2.2,5.5,6.5,5.5h4.3c1.2,0,2,0.4,2,1.6c0,1.2-0.8,1.6-2,1.6
	H32.7v5.1h10.4c5.3,0,8.1-3,8.1-6.5c0-3.9-2.4-6.3-8.1-6.3h-3.5c-0.8,0-1.2-0.6-1.2-1.2c0-0.6,0.4-1.2,1.2-1.2h9.6V131.5z M71,151.8
	h5.9v-20.3H71V151.8z M130,151.8v-15.2h5.1v-5.1h-16.5v5.1h5.1v15.2H130z M90.9,151.8v-15.2H96v-5.1H79.5v5.1h5.1v15.2H90.9z
	 M63.3,151.8v-15.2h5.1v-5.1H51.9v5.1h5.1v15.2H63.3z M109.8,131.5v12.4c0,2.2-0.6,3.1-2.4,3.1c-1.8,0-2.6-1-2.6-3.1v-12.4h-6.1
	v12.6c0,5.5,3,8.1,8.6,8.1c5.3,0,8.5-2.6,8.5-8.1v-12.6H109.8z M146,147.1c-2.4,0-2.8-1.6-2.8-4.3v-2.6c0-2.6,0.8-3.9,2.8-3.9
	c2,0,2.8,1.4,2.8,3.9v2.6C148.7,145.3,148.3,147.1,146,147.1 M21.8,151.8h7.7v-20.3H24v12.4l-6.3-12.4H9.8v20.3h5.5V139L21.8,151.8z
	 M155,164.8c0-5.9-3-9.3-9.1-9.3c-6.1,0-9,3.3-9,9.3v2.4c0,6.5,3,9.4,9,9.4c6.1,0,9.1-3,9.1-9.6V164.8z M65.1,176.2
	c4.2,0,6.9-2.6,6.9-6.3c0-2.7-1.6-4.7-3.7-5.3c1.2-0.6,2-2,2-3.9c0-2.4-1.8-4.7-5.9-4.7H53.5v20.2H65.1z M43.7,176.2h6.1v-20.2h-6.1
	V176.2z M11,155.9v12.4c0,2.2-0.6,3.2-2.4,3.2c-1.8,0-2.5-1-2.5-3.2v-12.4H0v12.6c0,5.5,3,8.1,8.7,8.1c5.3,0,8.5-2.6,8.5-8.1v-12.6
	H11z M64.3,161.6c0,1.4-0.8,2-1.8,2h-2.9v-3.7h2.9C63.5,159.8,64.3,160.4,64.3,161.6 M84.8,167.7h-3.7l1.8-7.5L84.8,167.7z
	 M146,171.5c-2.4,0-2.8-1.6-2.8-4.3v-2.6c0-2.5,0.8-3.9,2.8-3.9c2,0,2.8,1.4,2.8,3.9v2.6C148.7,169.7,148.3,171.5,146,171.5
	 M128.8,167.7v0.4c0,1.8-0.4,3.4-2.5,3.4c-2.2,0-2.6-1.6-2.6-3.5V164c0-2,0.8-3.3,2.6-3.3c2,0,2.5,1.4,2.5,3.1v0.4h5.9v-1
	c0-4.9-2.6-7.7-8.5-7.7c-6.1,0-8.8,3.3-8.8,9.3v2.4c0,6.5,2.7,9.4,8.8,9.4c5.9,0,8.5-2.6,8.5-8.3v-0.6H128.8z M32.3,176.2h7.7v-20.2
	h-5.5v12.4l-6.3-12.4h-7.9v20.2h5.5v-12.8L32.3,176.2z M107,176.2h7.7v-20.2h-5.5v12.4l-6.3-12.4H95v20.2h5.5v-12.8L107,176.2z
	 M59.6,172.2v-4.7h3.9c1.8,0,2.4,1,2.4,2.3c0,1.2-0.6,2.4-2.4,2.4H59.6z M87.2,176.2h6.5l-6.1-20.2h-9.4l-5.7,20.2h6.5l1-3.7h6.3
	L87.2,176.2z"/>
</svg>
